<svg version="1.1" viewBox="0.0 0.0 256.0 256.0" fill="none" stroke="none" stroke-linecap="square" stroke-miterlimit="10" xmlns:xlink="http://www.w3.org/1999/xlink" xmlns="http://www.w3.org/2000/svg"><clipPath id="g33f5cd2a327_0_4.0"><path d="m0 0l256.0 0l0 256.0l-256.0 0l0 -256.0z" clip-rule="nonzero"/></clipPath><g clip-path="url(#g33f5cd2a327_0_4.0)"><path fill="#000000" fill-opacity="0.0" d="m0 0l256.0 0l0 256.0l-256.0 0z" fill-rule="evenodd"/><path fill="#000000" fill-opacity="0.0" d="m-0.001312336 -6.56168E-4l256.0 0l0 158.11023l-256.0 0z" fill-rule="evenodd"/><path fill="#6d9eeb" d="m120.86978 137.6556l0 -24.609375q0 -7.53125 -1.078125 -14.40625q-1.0625 -6.890625 -3.21875 -12.9375q-2.921875 -8.59375 -8.0 -15.53125q-5.078125 -6.9375 -11.828125 -11.71875q-5.953125 -4.109375 -13.28125 -6.34375q-7.3125 -2.25 -15.71875 -2.25q-8.390625 0 -15.53125 2.25q-7.125 2.234375 -12.890625 6.34375q-6.34375 4.484375 -10.9375 10.890625q-4.578125 6.390625 -7.3125 14.296875q-2.34375 6.359375 -3.578125 13.828125q-1.21875 7.46875 -1.21875 15.578125l0 24.609375q0 7.03125 1.265625 13.71875q1.28125 6.6875 3.71875 12.640625q2.734375 6.84375 7.171875 12.796875q4.453125 5.953125 10.40625 10.25q5.859375 4.203125 13.078125 6.546875q7.234375 2.34375 15.828125 2.34375q3.8125 0 7.375 -0.484375q3.5625 -0.484375 6.984375 -1.375l27.046875 25.0l17.671875 -15.71875l-23.53125 -21.296875q3.8125 -3.609375 6.78125 -7.953125q2.984375 -4.34375 5.140625 -9.125q2.734375 -6.15625 4.140625 -13.09375q1.421875 -6.9375 1.515625 -14.25zm-27.828125 -24.8125l0 24.8125q0 3.90625 -0.5 7.765625q-0.484375 3.84375 -1.453125 7.46875q-1.375 4.78125 -3.765625 8.984375q-2.390625 4.1875 -5.8125 7.03125q-2.734375 2.046875 -6.15625 3.265625q-3.40625 1.21875 -7.609375 1.21875q-4.09375 0 -7.375 -1.171875q-3.265625 -1.171875 -5.703125 -3.3125q-3.421875 -2.84375 -5.671875 -7.140625q-2.25 -4.296875 -3.421875 -9.5625q-0.78125 -3.421875 -1.125 -7.125q-0.328125 -3.71875 -0.328125 -7.421875l0 -24.8125q0 -4.390625 0.28125 -8.4375q0.296875 -4.0625 0.890625 -7.671875q0.96875 -6.25 3.15625 -11.28125q2.203125 -5.03125 5.921875 -8.25q2.53125 -2.25 5.84375 -3.421875q3.328125 -1.171875 7.53125 -1.171875q4.390625 0 7.953125 1.28125q3.578125 1.265625 6.3125 3.5q2.828125 2.640625 5.0625 6.40625q2.25 3.75 3.421875 8.34375q1.375 4.390625 1.953125 9.671875q0.59375 5.265625 0.59375 11.03125z" fill-rule="nonzero"/><path fill="#e06666" d="m173.99869 193.99934l27.921875 0l43.078125 -142.1875l-30.28125 0l-24.21875 92.765625l-2.640625 9.671875l-2.4375 -9.5625l-24.125 -92.875l-30.265625 0l42.96875 142.1875z" fill-rule="nonzero"/></g></svg>