<svg version="1.1" viewBox="0.0 0.0 1024.0 1024.0" fill="none" stroke="none" stroke-linecap="square" stroke-miterlimit="10" xmlns:xlink="http://www.w3.org/1999/xlink" xmlns="http://www.w3.org/2000/svg"><clipPath id="g33f5cd2a327_0_0.0"><path d="m0 0l1024.0 0l0 1024.0l-1024.0 0l0 -1024.0z" clip-rule="nonzero"/></clipPath><g clip-path="url(#g33f5cd2a327_0_0.0)"><path fill="#000000" fill-opacity="0.0" d="m0 0l1024.0 0l0 1024.0l-1024.0 0z" fill-rule="evenodd"/><path fill="#000000" fill-opacity="0.0" d="m-17.160105 195.79527l1024.0 0l0 632.4094l-1024.0 0z" fill-rule="evenodd"/><path fill="#666666" d="m100.50396 632.07965l210.9375 -86.015625l0 -53.203125l-210.9375 -85.78125l0 63.046875l134.53125 44.296875l14.0625 4.6875l-14.296875 4.6875l-134.29688 45.0l0 63.28125z" fill-rule="nonzero"/><path fill="#6d9eeb" d="m621.75397 530.3609l0 -59.0625q0 -18.046875 -2.578125 -34.5625q-2.578125 -16.53125 -7.734375 -31.0625q-7.03125 -20.625 -19.21875 -37.265625q-12.1875 -16.640625 -28.359375 -28.125q-14.296875 -9.84375 -31.875 -15.234375q-17.578125 -5.390625 -37.734375 -5.390625q-20.15625 0 -37.265625 5.390625q-17.109375 5.390625 -30.9375 15.234375q-15.234375 10.78125 -26.25 26.140625q-11.015625 15.34375 -17.578125 34.328125q-5.625 15.234375 -8.5625 33.171875q-2.921875 17.921875 -2.921875 37.375l0 59.0625q0 16.875 3.046875 32.9375q3.046875 16.046875 8.90625 30.34375q6.5625 16.40625 17.21875 30.703125q10.671875 14.296875 24.96875 24.609375q14.0625 10.078125 31.40625 15.703125q17.34375 5.625 37.96875 5.625q9.140625 0 17.6875 -1.171875q8.5625 -1.171875 16.765625 -3.28125l64.921875 60.0l42.421875 -37.734375l-56.484375 -51.09375q9.140625 -8.671875 16.28125 -19.09375q7.15625 -10.4375 12.3125 -21.921875q6.5625 -14.765625 9.953125 -31.40625q3.40625 -16.640625 3.640625 -34.21875zm-66.796875 -59.53125l0 59.53125q0 9.375 -1.171875 18.640625q-1.171875 9.25 -3.515625 17.921875q-3.28125 11.484375 -9.03125 21.5625q-5.734375 10.078125 -13.9375 16.875q-6.5625 4.921875 -14.765625 7.859375q-8.203125 2.921875 -18.28125 2.921875q-9.84375 0 -17.703125 -2.8125q-7.84375 -2.8125 -13.703125 -7.96875q-8.203125 -6.796875 -13.59375 -17.109375q-5.390625 -10.3125 -8.203125 -22.96875q-1.875 -8.203125 -2.703125 -17.109375q-0.8125 -8.90625 -0.8125 -17.8125l0 -59.53125q0 -10.546875 0.703125 -20.265625q0.703125 -9.734375 2.109375 -18.40625q2.34375 -15.0 7.609375 -27.0625q5.28125 -12.078125 14.1875 -19.8125q6.09375 -5.390625 14.0625 -8.203125q7.96875 -2.8125 18.046875 -2.8125q10.546875 0 19.09375 3.046875q8.5625 3.046875 15.125 8.4375q6.796875 6.328125 12.1875 15.359375q5.390625 9.015625 8.203125 20.03125q3.28125 10.546875 4.6875 23.203125q1.40625 12.65625 1.40625 26.484375z" fill-rule="nonzero"/><path fill="#e06666" d="m749.25397 665.5953l67.03125 0l103.359375 -341.25l-72.65625 0l-58.125 222.65625l-6.328125 23.203125l-5.859375 -22.96875l-57.890625 -222.89062l-72.65625 0l103.125 341.25z" fill-rule="nonzero"/></g></svg>